<svg width="40" height="47" viewBox="0 0 40 47" fill="none" xmlns="http://www.w3.org/2000/svg">
<g id="LOGO">
<path id="Vector 2 (Stroke)" fill-rule="evenodd" clip-rule="evenodd" d="M0 16.4083L2.21828 15.0914L18.7183 24.0914L19.5 25.4083V45.4083L17 46.9083L1 38.4083L0 36.4083V16.4083ZM3 18.9351V35.5178L16.5 42.8815V26.2987L3 18.9351Z" fill="#00864A"/>
<path id="Vector 3 (Stroke)" fill-rule="evenodd" clip-rule="evenodd" d="M17.645 6.38138L19.3537 6.38062L36.3537 15.8806L36.401 18.9085L23.9286 26.3986V42.4147L33.75 36.8852V30.9083L37.25 28.6895V37.9083L36.3586 39.4332L23.0371 46.9332L20.4286 45.4083V25.4083L21.2776 23.908L32.0101 17.4627L18.5009 9.91348L6.85507 16.4352L3.5 14.4083L17.645 6.38138Z" fill="#EEB869"/>
<path id="Vector 4 (Stroke)" fill-rule="evenodd" clip-rule="evenodd" d="M30.5165 0L39.0165 3.11765L39.9894 4.7036L38.9894 13.0859L36.0106 12.7306L36.6541 7.33616L13 20.9083L11 23.252V30.9083L8 28.9083V21.6426L10 19.4083L34.9872 4.8352L29.4835 2.81652L30.5165 0Z" fill="#2A96F1"/>
</g>
</svg>
